<?xml version="1.0" encoding="UTF-8" standalone="no"?>
<!-- Created with Inkscape (http://www.inkscape.org/) -->

<svg
   xmlns:dc="http://purl.org/dc/elements/1.1/"
   xmlns:cc="http://creativecommons.org/ns#"
   xmlns:rdf="http://www.w3.org/1999/02/22-rdf-syntax-ns#"
   xmlns:svg="http://www.w3.org/2000/svg"
   xmlns="http://www.w3.org/2000/svg"
   xmlns:sodipodi="http://sodipodi.sourceforge.net/DTD/sodipodi-0.dtd"
   xmlns:inkscape="http://www.inkscape.org/namespaces/inkscape"
   width="143.40416mm"
   height="77.258331mm"
   viewBox="0 0 143.40416 77.258331"
   version="1.1"
   id="svg4848"
   inkscape:version="0.92.3 (2405546, 2018-03-11)"
   sodipodi:docname="Logo_nandre.svg">
  <defs
     id="defs4842">
    <filter
       inkscape:label="Film Grain"
       inkscape:menu="Image Effects"
       inkscape:menu-tooltip="Adds a small scale graininess"
       style="color-interpolation-filters:sRGB"
       id="filter4646">
      <feColorMatrix
         type="saturate"
         in="SourceGraphic"
         values="0"
         id="feColorMatrix4634" />
      <feColorMatrix
         values="3 0 0 0 -0.3 0 3 0 0 -0.3 0 0 3 0 -0.3 0 0 0 1 0"
         result="result0"
         id="feColorMatrix4636" />
      <feTurbulence
         baseFrequency="0.111"
         numOctaves="2"
         type="fractalNoise"
         id="feTurbulence4638" />
      <feColorMatrix
         values="0 0 0 0 0 0 0 0 0 0 0 0 0 0 0 0 0 0 255 -200"
         id="feColorMatrix4640" />
      <feGaussianBlur
         stdDeviation="1"
         id="feGaussianBlur4642" />
      <feComposite
         in2="result0"
         operator="atop"
         id="feComposite4644"
         result="fbSourceGraphic" />
      <feColorMatrix
         result="fbSourceGraphicAlpha"
         in="fbSourceGraphic"
         values="0 0 0 -1 0 0 0 0 -1 0 0 0 0 -1 0 0 0 0 1 0"
         id="feColorMatrix4746" />
      <feTurbulence
         id="feTurbulence4748"
         type="fractalNoise"
         numOctaves="3"
         baseFrequency="1"
         seed="0"
         result="result0" />
      <feColorMatrix
         id="feColorMatrix4750"
         result="result4"
         values="0"
         type="saturate" />
      <feComposite
         k4="0"
         in2="result4"
         id="feComposite4752"
         in="fbSourceGraphic"
         operator="arithmetic"
         k1="1.25"
         k2="0.5"
         k3="0.5"
         result="result2" />
      <feBlend
         in2="fbSourceGraphic"
         id="feBlend4754"
         result="result5"
         mode="normal"
         in="result2" />
      <feComposite
         in2="fbSourceGraphic"
         id="feComposite4756"
         in="result5"
         operator="in"
         result="result3" />
    </filter>
    <filter
       inkscape:label="Film Grain"
       inkscape:menu="Image Effects"
       inkscape:menu-tooltip="Adds a small scale graininess"
       style="color-interpolation-filters:sRGB"
       id="filter4660">
      <feColorMatrix
         type="saturate"
         in="SourceGraphic"
         values="0"
         id="feColorMatrix4648" />
      <feColorMatrix
         values="3 0 0 0 -0.3 0 3 0 0 -0.3 0 0 3 0 -0.3 0 0 0 1 0"
         result="result0"
         id="feColorMatrix4650" />
      <feTurbulence
         baseFrequency="0.111"
         numOctaves="2"
         type="fractalNoise"
         id="feTurbulence4652" />
      <feColorMatrix
         values="0 0 0 0 0 0 0 0 0 0 0 0 0 0 0 0 0 0 255 -200"
         id="feColorMatrix4654" />
      <feGaussianBlur
         stdDeviation="1"
         id="feGaussianBlur4656" />
      <feComposite
         in2="result0"
         operator="atop"
         id="feComposite4658"
         result="fbSourceGraphic" />
      <feColorMatrix
         result="fbSourceGraphicAlpha"
         in="fbSourceGraphic"
         values="0 0 0 -1 0 0 0 0 -1 0 0 0 0 -1 0 0 0 0 1 0"
         id="feColorMatrix4758" />
      <feTurbulence
         id="feTurbulence4760"
         type="fractalNoise"
         numOctaves="3"
         baseFrequency="1"
         seed="0"
         result="result0" />
      <feColorMatrix
         id="feColorMatrix4762"
         result="result4"
         values="0"
         type="saturate" />
      <feComposite
         k4="0"
         in2="result4"
         id="feComposite4764"
         in="fbSourceGraphic"
         operator="arithmetic"
         k1="1.25"
         k2="0.5"
         k3="0.5"
         result="result2" />
      <feBlend
         in2="fbSourceGraphic"
         id="feBlend4766"
         result="result5"
         mode="normal"
         in="result2" />
      <feComposite
         in2="fbSourceGraphic"
         id="feComposite4768"
         in="result5"
         operator="in"
         result="result3" />
    </filter>
    <filter
       inkscape:label="Film Grain"
       inkscape:menu="Image Effects"
       inkscape:menu-tooltip="Adds a small scale graininess"
       style="color-interpolation-filters:sRGB"
       id="filter4674">
      <feColorMatrix
         type="saturate"
         in="SourceGraphic"
         values="0"
         id="feColorMatrix4662" />
      <feColorMatrix
         values="3 0 0 0 -0.3 0 3 0 0 -0.3 0 0 3 0 -0.3 0 0 0 1 0"
         result="result0"
         id="feColorMatrix4664" />
      <feTurbulence
         baseFrequency="0.111"
         numOctaves="2"
         type="fractalNoise"
         id="feTurbulence4666" />
      <feColorMatrix
         values="0 0 0 0 0 0 0 0 0 0 0 0 0 0 0 0 0 0 255 -200"
         id="feColorMatrix4668" />
      <feGaussianBlur
         stdDeviation="1"
         id="feGaussianBlur4670" />
      <feComposite
         in2="result0"
         operator="atop"
         id="feComposite4672"
         result="fbSourceGraphic" />
      <feColorMatrix
         result="fbSourceGraphicAlpha"
         in="fbSourceGraphic"
         values="0 0 0 -1 0 0 0 0 -1 0 0 0 0 -1 0 0 0 0 1 0"
         id="feColorMatrix4770" />
      <feTurbulence
         id="feTurbulence4772"
         type="fractalNoise"
         numOctaves="3"
         baseFrequency="1"
         seed="0"
         result="result0" />
      <feColorMatrix
         id="feColorMatrix4774"
         result="result4"
         values="0"
         type="saturate" />
      <feComposite
         k4="0"
         in2="result4"
         id="feComposite4776"
         in="fbSourceGraphic"
         operator="arithmetic"
         k1="1.25"
         k2="0.5"
         k3="0.5"
         result="result2" />
      <feBlend
         in2="fbSourceGraphic"
         id="feBlend4778"
         result="result5"
         mode="normal"
         in="result2" />
      <feComposite
         in2="fbSourceGraphic"
         id="feComposite4780"
         in="result5"
         operator="in"
         result="result3" />
    </filter>
    <filter
       inkscape:label="Film Grain"
       inkscape:menu="Image Effects"
       inkscape:menu-tooltip="Adds a small scale graininess"
       style="color-interpolation-filters:sRGB"
       id="filter4688">
      <feColorMatrix
         type="saturate"
         in="SourceGraphic"
         values="0"
         id="feColorMatrix4676" />
      <feColorMatrix
         values="3 0 0 0 -0.3 0 3 0 0 -0.3 0 0 3 0 -0.3 0 0 0 1 0"
         result="result0"
         id="feColorMatrix4678" />
      <feTurbulence
         baseFrequency="0.111"
         numOctaves="2"
         type="fractalNoise"
         id="feTurbulence4680" />
      <feColorMatrix
         values="0 0 0 0 0 0 0 0 0 0 0 0 0 0 0 0 0 0 255 -200"
         id="feColorMatrix4682" />
      <feGaussianBlur
         stdDeviation="1"
         id="feGaussianBlur4684" />
      <feComposite
         in2="result0"
         operator="atop"
         id="feComposite4686"
         result="fbSourceGraphic" />
      <feColorMatrix
         result="fbSourceGraphicAlpha"
         in="fbSourceGraphic"
         values="0 0 0 -1 0 0 0 0 -1 0 0 0 0 -1 0 0 0 0 1 0"
         id="feColorMatrix4782" />
      <feTurbulence
         id="feTurbulence4784"
         type="fractalNoise"
         numOctaves="3"
         baseFrequency="1"
         seed="0"
         result="result0" />
      <feColorMatrix
         id="feColorMatrix4786"
         result="result4"
         values="0"
         type="saturate" />
      <feComposite
         k4="0"
         in2="result4"
         id="feComposite4788"
         in="fbSourceGraphic"
         operator="arithmetic"
         k1="1.25"
         k2="0.5"
         k3="0.5"
         result="result2" />
      <feBlend
         in2="fbSourceGraphic"
         id="feBlend4790"
         result="result5"
         mode="normal"
         in="result2" />
      <feComposite
         in2="fbSourceGraphic"
         id="feComposite4792"
         in="result5"
         operator="in"
         result="result3" />
    </filter>
    <filter
       inkscape:label="Film Grain"
       inkscape:menu="Image Effects"
       inkscape:menu-tooltip="Adds a small scale graininess"
       style="color-interpolation-filters:sRGB"
       id="filter4702">
      <feColorMatrix
         type="saturate"
         in="SourceGraphic"
         values="0"
         id="feColorMatrix4690" />
      <feColorMatrix
         values="3 0 0 0 -0.3 0 3 0 0 -0.3 0 0 3 0 -0.3 0 0 0 1 0"
         result="result0"
         id="feColorMatrix4692" />
      <feTurbulence
         baseFrequency="0.111"
         numOctaves="2"
         type="fractalNoise"
         id="feTurbulence4694" />
      <feColorMatrix
         values="0 0 0 0 0 0 0 0 0 0 0 0 0 0 0 0 0 0 255 -200"
         id="feColorMatrix4696" />
      <feGaussianBlur
         stdDeviation="1"
         id="feGaussianBlur4698" />
      <feComposite
         in2="result0"
         operator="atop"
         id="feComposite4700"
         result="fbSourceGraphic" />
      <feColorMatrix
         result="fbSourceGraphicAlpha"
         in="fbSourceGraphic"
         values="0 0 0 -1 0 0 0 0 -1 0 0 0 0 -1 0 0 0 0 1 0"
         id="feColorMatrix4794" />
      <feTurbulence
         id="feTurbulence4796"
         type="fractalNoise"
         numOctaves="3"
         baseFrequency="1"
         seed="0"
         result="result0" />
      <feColorMatrix
         id="feColorMatrix4798"
         result="result4"
         values="0"
         type="saturate" />
      <feComposite
         k4="0"
         in2="result4"
         id="feComposite4800"
         in="fbSourceGraphic"
         operator="arithmetic"
         k1="1.25"
         k2="0.5"
         k3="0.5"
         result="result2" />
      <feBlend
         in2="fbSourceGraphic"
         id="feBlend4802"
         result="result5"
         mode="normal"
         in="result2" />
      <feComposite
         in2="fbSourceGraphic"
         id="feComposite4804"
         in="result5"
         operator="in"
         result="result3" />
    </filter>
    <filter
       inkscape:label="Film Grain"
       inkscape:menu="Image Effects"
       inkscape:menu-tooltip="Adds a small scale graininess"
       style="color-interpolation-filters:sRGB"
       id="filter4716">
      <feColorMatrix
         type="saturate"
         in="SourceGraphic"
         values="0"
         id="feColorMatrix4704" />
      <feColorMatrix
         values="3 0 0 0 -0.3 0 3 0 0 -0.3 0 0 3 0 -0.3 0 0 0 1 0"
         result="result0"
         id="feColorMatrix4706" />
      <feTurbulence
         baseFrequency="0.111"
         numOctaves="2"
         type="fractalNoise"
         id="feTurbulence4708" />
      <feColorMatrix
         values="0 0 0 0 0 0 0 0 0 0 0 0 0 0 0 0 0 0 255 -200"
         id="feColorMatrix4710" />
      <feGaussianBlur
         stdDeviation="1"
         id="feGaussianBlur4712" />
      <feComposite
         in2="result0"
         operator="atop"
         id="feComposite4714"
         result="fbSourceGraphic" />
      <feColorMatrix
         result="fbSourceGraphicAlpha"
         in="fbSourceGraphic"
         values="0 0 0 -1 0 0 0 0 -1 0 0 0 0 -1 0 0 0 0 1 0"
         id="feColorMatrix4806" />
      <feTurbulence
         id="feTurbulence4808"
         type="fractalNoise"
         numOctaves="3"
         baseFrequency="1"
         seed="0"
         result="result0" />
      <feColorMatrix
         id="feColorMatrix4810"
         result="result4"
         values="0"
         type="saturate" />
      <feComposite
         k4="0"
         in2="result4"
         id="feComposite4812"
         in="fbSourceGraphic"
         operator="arithmetic"
         k1="1.25"
         k2="0.5"
         k3="0.5"
         result="result2" />
      <feBlend
         in2="fbSourceGraphic"
         id="feBlend4814"
         result="result5"
         mode="normal"
         in="result2" />
      <feComposite
         in2="fbSourceGraphic"
         id="feComposite4816"
         in="result5"
         operator="in"
         result="result3" />
    </filter>
    <filter
       inkscape:label="Film Grain"
       inkscape:menu="Image Effects"
       inkscape:menu-tooltip="Adds a small scale graininess"
       style="color-interpolation-filters:sRGB"
       id="filter4730">
      <feColorMatrix
         type="saturate"
         in="SourceGraphic"
         values="0"
         id="feColorMatrix4718" />
      <feColorMatrix
         values="3 0 0 0 -0.3 0 3 0 0 -0.3 0 0 3 0 -0.3 0 0 0 1 0"
         result="result0"
         id="feColorMatrix4720" />
      <feTurbulence
         baseFrequency="0.111"
         numOctaves="2"
         type="fractalNoise"
         id="feTurbulence4722" />
      <feColorMatrix
         values="0 0 0 0 0 0 0 0 0 0 0 0 0 0 0 0 0 0 255 -200"
         id="feColorMatrix4724" />
      <feGaussianBlur
         stdDeviation="1"
         id="feGaussianBlur4726" />
      <feComposite
         in2="result0"
         operator="atop"
         id="feComposite4728"
         result="fbSourceGraphic" />
      <feColorMatrix
         result="fbSourceGraphicAlpha"
         in="fbSourceGraphic"
         values="0 0 0 -1 0 0 0 0 -1 0 0 0 0 -1 0 0 0 0 1 0"
         id="feColorMatrix4818" />
      <feTurbulence
         id="feTurbulence4820"
         type="fractalNoise"
         numOctaves="3"
         baseFrequency="1"
         seed="0"
         result="result0" />
      <feColorMatrix
         id="feColorMatrix4822"
         result="result4"
         values="0"
         type="saturate" />
      <feComposite
         k4="0"
         in2="result4"
         id="feComposite4824"
         in="fbSourceGraphic"
         operator="arithmetic"
         k1="1.25"
         k2="0.5"
         k3="0.5"
         result="result2" />
      <feBlend
         in2="fbSourceGraphic"
         id="feBlend4826"
         result="result5"
         mode="normal"
         in="result2" />
      <feComposite
         in2="fbSourceGraphic"
         id="feComposite4828"
         in="result5"
         operator="in"
         result="result3" />
    </filter>
    <filter
       inkscape:label="Film Grain"
       inkscape:menu="Image Effects"
       inkscape:menu-tooltip="Adds a small scale graininess"
       style="color-interpolation-filters:sRGB"
       id="filter4744">
      <feColorMatrix
         type="saturate"
         in="SourceGraphic"
         values="0"
         id="feColorMatrix4732" />
      <feColorMatrix
         values="3 0 0 0 -0.3 0 3 0 0 -0.3 0 0 3 0 -0.3 0 0 0 1 0"
         result="result0"
         id="feColorMatrix4734" />
      <feTurbulence
         baseFrequency="0.111"
         numOctaves="2"
         type="fractalNoise"
         id="feTurbulence4736" />
      <feColorMatrix
         values="0 0 0 0 0 0 0 0 0 0 0 0 0 0 0 0 0 0 255 -200"
         id="feColorMatrix4738" />
      <feGaussianBlur
         stdDeviation="1"
         id="feGaussianBlur4740" />
      <feComposite
         in2="result0"
         operator="atop"
         id="feComposite4742"
         result="fbSourceGraphic" />
      <feColorMatrix
         result="fbSourceGraphicAlpha"
         in="fbSourceGraphic"
         values="0 0 0 -1 0 0 0 0 -1 0 0 0 0 -1 0 0 0 0 1 0"
         id="feColorMatrix4830" />
      <feTurbulence
         id="feTurbulence4832"
         type="fractalNoise"
         numOctaves="3"
         baseFrequency="1"
         seed="0"
         result="result0" />
      <feColorMatrix
         id="feColorMatrix4834"
         result="result4"
         values="0"
         type="saturate" />
      <feComposite
         k4="0"
         in2="result4"
         id="feComposite4836"
         in="fbSourceGraphic"
         operator="arithmetic"
         k1="1.25"
         k2="0.5"
         k3="0.5"
         result="result2" />
      <feBlend
         in2="fbSourceGraphic"
         id="feBlend4838"
         result="result5"
         mode="normal"
         in="result2" />
      <feComposite
         in2="fbSourceGraphic"
         id="feComposite4840"
         in="result5"
         operator="in"
         result="result3" />
    </filter>
  </defs>
  <sodipodi:namedview
     id="base"
     pagecolor="#ffffff"
     bordercolor="#666666"
     borderopacity="1.0"
     inkscape:pageopacity="0.0"
     inkscape:pageshadow="2"
     inkscape:zoom="0.67972082"
     inkscape:cx="278.9182"
     inkscape:cy="124.25241"
     inkscape:document-units="mm"
     inkscape:current-layer="layer1"
     showgrid="false"
     inkscape:window-width="1920"
     inkscape:window-height="986"
     inkscape:window-x="-11"
     inkscape:window-y="-11"
     inkscape:window-maximized="1"
     inkscape:snap-page="false"
     showguides="true" />
  <metadata
     id="metadata4845">
    <rdf:RDF>
      <cc:Work
         rdf:about="">
        <dc:format>image/svg+xml</dc:format>
        <dc:type
           rdf:resource="http://purl.org/dc/dcmitype/StillImage" />
        <dc:title></dc:title>
      </cc:Work>
    </rdf:RDF>
  </metadata>
  <g
     inkscape:label="Layer 1"
     inkscape:groupmode="layer"
     id="layer1"
     transform="translate(-37.041687,-23.42082)">
    <rect
       style="opacity:0.5452;fill:#f9f9f9;stroke-width:0.15458882"
       id="rect5144"
       width="143.40416"
       height="77.258331"
       x="37.041687"
       y="23.42082" />
    <path
       inkscape:connector-curvature="0"
       id="path10"
       style="fill:#000080;stroke-width:0.99999994;filter:url(#filter4744)"
       d="m 0.38278444,32.880884 c -0.11471,0.11191 -0.23073,0.22236 -0.3457,0.33398 0.15775,0.006 0.45977,-0.44526 0.3457,-0.33398 z"
       transform="matrix(0.26458333,0,0,0.26458333,44.908847,28.871413)" />
    <path
       style="fill:#000080;stroke-width:0.26458332;filter:url(#filter4730)"
       id="path102"
       d="m 54.277707,46.530613 c 0.6244,1.97128 1.36477,3.90209 2.04828,5.85318 0.83152,2.22461 1.63389,4.45754 2.33813,6.72591 0.60731,2.00521 1.2696,3.99343 1.92836,5.98222 0.50836,1.47054 0.98014,2.95692 1.55304,4.40411 0.14631,0.29894 0.23176,0.62223 0.36236,0.92732 0.10485,0.24495 0.21015,0.43394 0.28199,0.38768 0.0581,-0.0374 0.10116,-0.23397 0.0391,-0.20357 -1.09745,0.53759 -2.14407,1.17323 -3.21611,1.75984 0.0666,-0.12785 0.1477,-0.24914 0.19978,-0.38356 0.17047,-0.44002 0.25083,-0.90881 0.3322,-1.37046 0.18505,-1.04995 0.29235,-2.10302 0.39066,-3.1639 0.25395,-2.81638 0.45243,-5.63723 0.72825,-8.45164 0.23648,-2.1516 0.48291,-4.30709 0.93393,-6.42665 0.32538,-1.52912 0.44481,-1.83808 0.88167,-3.34499 0.96091,-3.05018 2.27627,-5.96807 3.8475,-8.74865 0.67334,-1.14514 1.4645,-2.23652 2.46191,-3.12306 0.17482,-0.15539 0.34715,-0.3181 0.54725,-0.43922 1.27634,-0.77254 2.58403,-1.49208 3.87605,-2.23812 1.38702,-0.49408 2.09767,-0.33366 3.23862,0.55535 1.37416,1.4632 1.82639,3.42107 2.19627,5.33198 0.36087,2.76828 0.51587,5.57858 0.36447,8.36925 -0.0368,0.67836 -0.1116,1.35412 -0.1674,2.03118 -0.50009,4.96493 -1.66889,9.82981 -2.75359,14.69099 -1.17215,5.39824 -2.31388,10.81223 -2.99692,16.29844 -0.13333,1.07087 -0.22781,2.14621 -0.34171,3.21932 -0.0754,0.97712 -0.15086,1.95424 -0.22629,2.93137 0,0 -3.19266,1.59388 -3.19266,1.59388 v 0 c 0.086,-0.98566 0.17191,-1.97132 0.25787,-2.95699 0.11731,-1.0792 0.21711,-2.16045 0.35194,-3.2376 0.68626,-5.48248 1.80015,-10.89652 2.93841,-16.2993 1.03573,-4.83182 2.15567,-9.66599 2.65762,-14.58973 0.054,-0.66792 0.12769,-1.33453 0.1619,-2.00374 0.14082,-2.75458 -0.024,-5.5294 -0.40207,-8.25841 -0.35964,-1.80803 -0.78952,-3.6865 -2.13428,-5.03981 -0.14984,-0.10535 -0.2897,-0.22654 -0.44951,-0.31605 -0.81713,-0.45763 -1.72363,-0.26833 -2.52642,0.11401 0.9154,-0.54289 1.81821,-1.10763 2.74622,-1.62868 0.20597,-0.11565 -0.39266,0.26365 -0.57734,0.41093 -1.04506,0.83342 -1.86792,1.91361 -2.56784,3.04252 -1.62203,2.74716 -2.96297,5.64793 -3.93654,8.69064 -0.44576,1.50659 -0.55683,1.77806 -0.88799,3.30765 -0.45604,2.10638 -0.7027,4.24878 -0.93403,6.38895 -0.27252,2.80517 -0.45683,5.61718 -0.68713,8.42594 -0.13116,1.68962 -0.2385,3.41765 -0.72588,5.04836 -1.2388,0.77554 -3.20426,3.09902 -3.97255,1.8557 -0.2394,-0.38742 -0.28801,-0.86394 -0.49408,-1.26613 -0.55767,-1.46324 -1.01352,-2.9643 -1.52145,-4.44517 -0.64888,-1.99605 -1.30846,-3.98939 -1.90929,-6.00045 -0.69527,-2.26687 -1.48995,-4.49763 -2.3273,-6.71574 -0.67816,-1.9431 -1.41604,-3.86429 -2.13087,-5.79379 0,0 3.41546,-1.90131 3.41546,-1.90131 z"
       inkscape:connector-curvature="0" />
    <path
       style="fill:#000080;stroke-width:0.26458332;filter:url(#filter4716)"
       id="path104"
       d="m 88.142217,60.544783 c -1.06671,0.92925 -1.86912,2.14891 -2.35169,3.47827 -0.11787,0.3247 -0.19508,0.66276 -0.29261,0.99414 -0.19968,1.16408 -0.47332,2.62259 0.29914,3.66153 0.0826,0.11116 0.20297,0.18855 0.30445,0.28282 0.2854,0.0638 0.40789,0.13346 0.70193,0.0256 0.13527,-0.0497 0.49995,-0.28669 0.37331,-0.21794 -0.98019,0.53219 -1.92862,1.12575 -2.93416,1.60833 -0.17079,0.082 0.28079,-0.25529 0.40778,-0.39586 0.13479,-0.14921 0.25065,-0.31448 0.37598,-0.47172 1.17286,-1.96386 1.35508,-2.10403 4.5339,-3.17911 0.20722,-0.0701 0.32085,0.29964 0.45765,0.47034 0.18081,0.22563 0.3279,0.47633 0.49185,0.71449 0.82364,1.36808 1.49249,2.82209 2.29897,4.19998 0.49274,0.84187 0.7137,1.13917 1.25035,1.92742 0,0 -3.2959,1.93201 -3.2959,1.93201 v 0 c -0.50229,-0.76404 -0.77822,-1.1625 -1.24644,-1.967 -0.7946,-1.36529 -1.46712,-2.80102 -2.32621,-4.1287 -0.16104,-0.20762 -0.30172,-0.43277 -0.48312,-0.62285 -0.0949,-0.0994 -0.44561,-0.15221 -0.33742,-0.23695 0.95448,-0.74762 2.0599,-1.27932 3.08985,-1.91897 -0.0955,0.0796 -0.21,0.14082 -0.28638,0.2389 -0.05,0.0642 -0.55711,0.99301 -0.57863,1.03211 -1.24976,1.77926 -1.75935,1.68813 -4.49363,3.20818 -0.44371,0.24666 -0.945,0.0484 -1.3317,-0.1814 -0.11698,-0.12906 -0.25332,-0.24291 -0.35094,-0.38717 -0.78436,-1.15913 -0.59147,-2.65839 -0.37538,-3.94997 0.0903,-0.34541 0.15982,-0.69696 0.27098,-1.03624 0.44045,-1.34436 1.19166,-2.60014 2.18652,-3.60447 0,0 3.64155,-1.47573 3.64155,-1.47573 z"
       inkscape:connector-curvature="0" />
    <path
       style="fill:#000080;stroke-width:0.26458332;filter:url(#filter4702)"
       id="path106"
       d="m 96.149577,70.381803 c -0.14861,-2.10547 0.29716,-4.03698 0.99517,-6.00692 0.47941,-0.99504 1.01251,-2.37781 2.04424,-2.95403 3.990943,-2.22894 2.570943,-2.50065 4.644783,-1.84455 0.21958,0.18042 0.46896,0.32973 0.65874,0.54127 1.33218,1.48491 1.86887,4.42702 2.32256,6.32168 0.11094,0.46445 0.22188,0.9289 0.33282,1.39335 0,0 -3.32292,1.79025 -3.32292,1.79025 v 0 c -0.10632,-0.46618 -0.21264,-0.93236 -0.31896,-1.39855 -0.41195,-1.72624 -0.98324,-4.75139 -2.27908,-6.04226 -0.16612,-0.16548 -0.3885,-0.26266 -0.58275,-0.394 -1.640313,-0.18615 -0.736523,0.0381 2.14359,-1.79244 0.20341,-0.12929 -0.42674,0.23156 -0.61014,0.38793 -0.73817,0.62938 -1.16112,1.53034 -1.57692,2.38103 -0.13505,0.35485 -0.28807,0.70338 -0.40514,1.06457 -0.491693,1.51691 -0.740683,3.15125 -0.568303,4.7408 0,0 -3.47769,1.81187 -3.47769,1.81187 z"
       inkscape:connector-curvature="0" />
    <path
       inkscape:connector-curvature="0"
       id="path108"
       style="fill:#000080;stroke-width:0.99999994;filter:url(#filter4688)"
       d="m 261.45114,160.08791 c -0.009,0.17978 -0.0245,0.35102 -0.0352,0.5293 0.019,0.0155 0.0395,0.0295 0.0586,0.0449 -0.009,-0.19133 -0.014,-0.3829 -0.0234,-0.57422 z"
       transform="matrix(0.26458333,0,0,0.26458333,44.908847,28.871413)" />
    <path
       style="fill:#000080;stroke-width:0.26458332;filter:url(#filter4674)"
       id="path156"
       d="m 122.7742,58.440603 c -1.21544,0.88549 -2.17582,2.08185 -2.8786,3.40737 -0.18826,0.35507 -0.33889,0.72886 -0.50834,1.09329 -0.78805,2.04123 -1.25129,4.26277 -0.96987,6.45579 0.0511,0.39826 0.15319,0.7883 0.22979,1.18245 0.47033,1.59467 1.29649,3.11115 2.622,4.15431 0.20736,0.16319 0.4354,0.29824 0.6531,0.44736 1.1027,0.55745 2.33714,0.72085 3.48857,0.18561 0.21418,-0.0996 0.40393,-0.2449 0.6059,-0.36736 -0.91589,0.48457 -1.77514,1.09614 -2.74767,1.4537 -0.25136,0.0924 0.35775,-0.40177 0.50137,-0.62783 0.16061,-0.25281 0.29702,-0.52254 0.40658,-0.8013 0.45311,-1.15295 0.40636,-2.3058 0.38498,-3.52055 -0.055,-0.54302 -0.0911,-1.08828 -0.1649,-1.62906 -0.26581,-1.94684 -0.70419,-3.87315 -1.11448,-5.79273 -0.68911,-3.22412 -0.18407,-0.88184 -0.8875,-4.12907 -0.59961,-2.80961 -1.30938,-5.59607 -2.27203,-8.30501 -0.62272,-1.75236 -0.82624,-2.17258 -1.53236,-3.85196 -0.62505,-1.386 -1.27918,-2.75798 -1.95233,-4.12109 0,0 3.30442,-1.87302 3.30442,-1.87302 v 0 c 0.63743,1.39012 1.25776,2.78768 1.8745,4.18711 1.61726,3.96262 3.0185,8.00694 3.82073,12.22309 1.48093,6.77229 -0.56016,-2.57121 0.89582,4.12496 0.41846,1.92452 0.87476,3.85299 1.18138,5.79978 0.0858,0.54465 0.13614,1.09429 0.2042,1.64143 0.0842,1.61061 0.16541,3.0396 -0.60923,4.51408 -0.13002,0.24747 -0.23173,0.53828 -0.45785,0.70265 -1.22842,0.89295 -2.5688,1.62073 -3.8532,2.4311 -0.21814,0.10102 -0.42732,0.22422 -0.65441,0.30307 -1.25734,0.43656 -2.54955,0.16737 -3.67794,-0.47623 -0.22457,-0.16429 -0.46048,-0.31411 -0.67372,-0.49287 -1.3504,-1.13203 -2.20597,-2.72072 -2.69999,-4.38905 -0.21083,-1.07884 -0.33006,-1.44269 -0.34649,-2.56526 -0.0263,-1.79873 0.38028,-3.59776 0.98167,-5.28121 0.16165,-0.37565 0.30437,-0.76001 0.48495,-1.12693 0.65497,-1.3308 1.55566,-2.57148 2.71297,-3.50587 0,0 3.64798,-1.45075 3.64798,-1.45075 z"
       inkscape:connector-curvature="0" />
    <path
       style="fill:#000080;stroke-width:0.26458332;filter:url(#filter4660)"
       id="path158"
       d="m 136.51247,64.398853 c 0.42809,1.52911 0.88805,3.04806 1.27331,4.58875 0.0538,0.23727 0.11048,0.47392 0.16153,0.7118 0.11141,0.51912 0.12569,0.62857 0.21058,1.12945 0.0212,0.12498 0.0399,0.25039 0.0632,0.375 0.0118,0.0633 0.0872,0.23469 0.0422,0.18861 -0.0826,-0.0846 -0.10988,-0.20945 -0.16482,-0.31417 -1.10164,0.63617 -2.15227,1.37026 -3.30493,1.9085 -0.11308,0.0528 0.0143,-0.24921 0.0186,-0.37393 0.007,-0.19255 0.0106,-0.38517 0.0142,-0.5778 0.0173,-0.92085 0.0544,-1.83864 0.0971,-2.75878 0.11677,-2.07241 0.35247,-4.15651 0.98739,-6.14194 0.13464,-0.42106 0.30375,-0.83031 0.45562,-1.24547 0.78972,-1.979 2.09559,-3.63979 3.56483,-5.15283 0.59557,-0.58044 0.3039,-0.30986 0.87172,-0.81528 0,0 3.6103,-1.46087 3.6103,-1.46087 v 0 c -0.59928,0.48442 -0.29382,0.22089 -0.91131,0.79645 -1.50359,1.46979 -2.86911,3.07532 -3.69845,5.0344 -0.15717,0.40566 -0.33284,0.80463 -0.4715,1.21698 -0.65495,1.94765 -0.88316,4.00366 -0.99265,6.04514 -0.0301,0.90695 -0.062,1.80917 -0.0457,2.71652 0.003,0.18979 0.007,0.37958 0.0116,0.56936 0.003,0.12582 0.10646,0.29803 0.009,0.37745 -1.04896,0.85332 -2.21776,1.5477 -3.32664,2.32156 -0.0684,-0.0989 -0.15527,-0.18738 -0.20518,-0.2968 -0.0821,-0.18004 -0.0446,-0.39326 -0.0698,-0.58952 -0.0792,-0.61512 -0.18411,-1.2266 -0.31983,-1.83193 -0.35972,-1.5309 -0.81047,-3.03822 -1.32082,-4.52568 0,0 3.44075,-1.89497 3.44075,-1.89497 z"
       inkscape:connector-curvature="0" />
    <path
       style="fill:#000080;stroke-width:0.26458332;filter:url(#filter4646)"
       id="path160"
       d="m 155.53497,62.649013 c 0.13445,-0.0663 0.26901,-0.13234 0.40335,-0.19885 0.35995,-0.17818 0.72959,-0.33664 1.08692,-0.52001 0.19808,-0.10165 0.77535,-0.43808 0.5818,-0.32806 -2.96043,1.68283 -3.58998,2.1416 -2.15397,1.15179 1.1549,-0.79125 2.08472,-1.81295 2.94031,-2.90746 0.57553,-0.75151 0.98786,-1.59219 1.19597,-2.51347 0.13566,-0.60082 0.0132,-0.81252 -0.40684,-1.21253 -0.54912,-0.44041 -1.2627,-0.44517 -1.93474,-0.42842 -1.39517,0.11597 -2.73621,0.51384 -3.99338,1.11702 5.17443,-3.01661 2.40769,-1.46693 1.42365,-0.53915 -0.61348,0.57841 -1.08893,1.23878 -1.55729,1.93407 -1.02778,1.62275 -1.3299,3.4677 -1.37544,5.35225 -0.0168,1.79368 0.42155,3.55199 0.99195,5.24049 0.27679,0.72748 0.58024,1.48351 1.09168,2.08572 0.45545,0.53628 1.07613,0.88473 1.67199,1.23521 1.09215,0.48884 2.26434,0.44554 3.40544,0.18575 0.78053,-0.26627 1.48337,-0.70422 2.25558,-0.99365 0,0 -3.08037,2.42345 -3.08037,2.42345 v 0 c -0.75491,0.32605 -1.47426,0.75527 -2.28796,0.92259 -1.21453,0.18837 -2.4317,0.14624 -3.54581,-0.43525 -0.47026,-0.29287 -0.78208,-0.4611 -1.20301,-0.83033 -0.82821,-0.72649 -1.31859,-1.70999 -1.67796,-2.73534 -0.5847,-1.72723 -1.04792,-3.52434 -1.05102,-5.3592 0.0251,-1.93141 0.29073,-3.84432 1.27916,-5.54297 1.83374,-2.96012 3.35565,-3.51115 6.68817,-5.34713 1.30924,-0.55743 2.69233,-0.947 4.12222,-1.00403 0.77308,0.0292 1.53665,0.10618 2.12698,0.65973 0.44917,0.44506 0.73114,0.9036 0.58655,1.56197 -0.18069,0.98045 -0.57721,1.88148 -1.16095,2.69356 -0.85481,1.11505 -1.74451,2.19341 -2.90237,3.01447 -2.04348,1.50677 -4.32253,2.64836 -6.58987,3.7729 0,0 3.06926,-2.45512 3.06926,-2.45512 z"
       inkscape:connector-curvature="0" />
  </g>
</svg>
